<svg width="16" height="17" viewBox="0 0 16 17" fill="none" xmlns="http://www.w3.org/2000/svg">
<path id="Vector" d="M8.5 15.0213H10.6667C11.2357 15.0213 11.7992 14.9113 12.325 14.6977C12.8507 14.4841 13.3284 14.1711 13.7308 13.7764C14.1332 13.3817 14.4524 12.9132 14.6701 12.3975C14.8879 11.8819 15 11.3292 15 10.771C15 10.2129 14.8879 9.66023 14.6701 9.14457C14.4524 8.62891 14.1332 8.16037 13.7308 7.7657C13.3284 7.37103 12.8507 7.05796 12.325 6.84437C11.7992 6.63078 11.2357 6.52084 10.6667 6.52084H2.72222M5.61111 2.979L2 6.52084L5.61111 10.0627V2.979Z" stroke="#F07478" stroke-width="2"/>
</svg>
